<svg width="199" height="136" viewBox="0 0 199 136" fill="none" xmlns="http://www.w3.org/2000/svg">
<rect width="61" height="17" rx="5" transform="matrix(-1 0 0 1 61 87)" fill="white"/>
<rect width="50" height="17" rx="5" transform="matrix(-1 0 0 1 50 56)" fill="#9028FF"/>
<rect width="36" height="17" rx="5" transform="matrix(-1 0 0 1 36 29)" fill="white"/>
<path d="M184.543 22.8638C185.976 17.7295 187.734 14.3601 189.818 12.7556C191.772 10.9907 194.637 10.1082 198.414 10.1082C198.738 10.1082 199 9.84581 199 9.52213V4C199 1.79086 197.209 0 195 0H154.746C152.537 0 150.746 1.79086 150.746 4V7.56854C150.746 8.97116 151.883 10.1082 153.286 10.1082C157.193 10.1082 160.123 10.8302 162.077 12.2743C164.031 13.5578 165.007 16.2052 165.007 20.2164C165.007 21.5 164.877 23.1045 164.617 25.0299C164.226 26.9552 163.835 28.8004 163.445 30.5653L154.263 70.9981C153.351 74.8489 152.504 79.181 151.723 83.9944C150.811 88.6474 149.965 93.1399 149.183 97.472C148.43 101.496 147.858 104.848 147.467 107.528C147.443 107.696 147.299 107.821 147.129 107.821C146.962 107.821 146.819 107.7 146.792 107.535C146.138 103.563 145.112 98.4438 143.713 92.1772C142.15 85.5989 140.522 79.3414 138.829 73.4048L124.19 3.89763C123.8 2.04682 122.167 0.722006 120.276 0.722006H114.264C112.462 0.722006 110.883 1.92656 110.407 3.66413L91.6775 71.9608C90.6356 75.8116 89.5285 80.0634 88.3564 84.7164C87.1842 89.209 86.1423 93.541 85.2306 97.7127C84.3512 101.582 83.7142 104.854 83.3195 107.528C83.2948 107.696 83.151 107.821 82.9812 107.821C82.8139 107.821 82.6713 107.7 82.6443 107.535C81.9965 103.578 81.1003 98.7795 79.9559 93.1399C78.6535 87.2034 77.0255 80.3843 75.0719 72.6828L65.3039 33.9347C64.783 31.8489 64.3923 29.6828 64.1318 27.4366C63.7411 25.0299 63.5457 23.1847 63.5457 21.9011C63.5457 14.0392 67.8436 10.1082 76.4394 10.1082C77.1947 10.1082 77.807 9.49595 77.807 8.74068V4C77.807 1.79086 76.0161 0 73.807 0H40C37.7909 0 36 1.79086 36 4V7.56854C36 8.97116 37.1371 10.1082 38.5397 10.1082C42.3166 10.1082 45.247 11.2313 47.3309 13.4776C49.2845 15.7239 51.2381 20.8582 53.1917 28.8806L77.6319 125.976C78.0794 127.754 79.6779 129 81.5109 129H90.9468C92.7599 129 94.3462 127.781 94.8124 126.028L116.604 44.1186C117.679 40.0784 123.45 40.1875 124.371 44.2654L142.813 125.882C143.225 127.705 144.845 129 146.715 129H155.801C157.649 129 159.257 127.734 159.69 125.938L184.543 22.8638Z" fill="white"/>
<path d="M1.575 129V111.275H6.05V129H1.575ZM5.125 129V125.15H13.675V129H5.125ZM18.5096 129V111.275H22.9846V129H18.5096ZM22.0596 129V125.225H31.6596V129H22.0596ZM22.0596 121.8V118.125H30.7596V121.8H22.0596ZM22.0596 115.05V111.275H31.5096V115.05H22.0596ZM42.0439 129.275C40.5606 129.275 39.2689 129.05 38.1689 128.6C37.0856 128.15 36.0939 127.442 35.1939 126.475L38.0189 123.625C38.6356 124.275 39.2939 124.775 39.9939 125.125C40.6939 125.458 41.4856 125.625 42.3689 125.625C43.1189 125.625 43.6939 125.5 44.0939 125.25C44.5106 124.983 44.7189 124.625 44.7189 124.175C44.7189 123.758 44.5689 123.417 44.2689 123.15C43.9689 122.867 43.5689 122.625 43.0689 122.425C42.5856 122.208 42.0439 122.008 41.4439 121.825C40.8606 121.625 40.2689 121.392 39.6689 121.125C39.0856 120.842 38.5439 120.5 38.0439 120.1C37.5606 119.7 37.1689 119.2 36.8689 118.6C36.5689 118 36.4189 117.258 36.4189 116.375C36.4189 115.242 36.6856 114.275 37.2189 113.475C37.7689 112.675 38.5273 112.058 39.4939 111.625C40.4606 111.192 41.5856 110.975 42.8689 110.975C44.1523 110.975 45.3356 111.192 46.4189 111.625C47.5023 112.058 48.3939 112.658 49.0939 113.425L46.2439 116.25C45.7106 115.717 45.1689 115.317 44.6189 115.05C44.0689 114.783 43.4689 114.65 42.8189 114.65C42.2023 114.65 41.7189 114.758 41.3689 114.975C41.0189 115.192 40.8439 115.5 40.8439 115.9C40.8439 116.3 40.9939 116.625 41.2939 116.875C41.5939 117.125 41.9856 117.35 42.4689 117.55C42.9689 117.733 43.5106 117.925 44.0939 118.125C44.6939 118.325 45.2856 118.558 45.8689 118.825C46.4523 119.092 46.9856 119.433 47.4689 119.85C47.9689 120.267 48.3689 120.792 48.6689 121.425C48.9689 122.058 49.1189 122.825 49.1189 123.725C49.1189 125.492 48.4939 126.858 47.2439 127.825C46.0106 128.792 44.2773 129.275 42.0439 129.275ZM59.2471 129.275C57.7637 129.275 56.4721 129.05 55.3721 128.6C54.2887 128.15 53.2971 127.442 52.3971 126.475L55.2221 123.625C55.8387 124.275 56.4971 124.775 57.1971 125.125C57.8971 125.458 58.6887 125.625 59.5721 125.625C60.3221 125.625 60.8971 125.5 61.2971 125.25C61.7137 124.983 61.9221 124.625 61.9221 124.175C61.9221 123.758 61.7721 123.417 61.4721 123.15C61.1721 122.867 60.7721 122.625 60.2721 122.425C59.7887 122.208 59.2471 122.008 58.6471 121.825C58.0637 121.625 57.4721 121.392 56.8721 121.125C56.2887 120.842 55.7471 120.5 55.2471 120.1C54.7637 119.7 54.3721 119.2 54.0721 118.6C53.7721 118 53.6221 117.258 53.6221 116.375C53.6221 115.242 53.8887 114.275 54.4221 113.475C54.9721 112.675 55.7304 112.058 56.6971 111.625C57.6637 111.192 58.7887 110.975 60.0721 110.975C61.3554 110.975 62.5387 111.192 63.6221 111.625C64.7054 112.058 65.5971 112.658 66.2971 113.425L63.4471 116.25C62.9137 115.717 62.3721 115.317 61.8221 115.05C61.2721 114.783 60.6721 114.65 60.0221 114.65C59.4054 114.65 58.9221 114.758 58.5721 114.975C58.2221 115.192 58.0471 115.5 58.0471 115.9C58.0471 116.3 58.1971 116.625 58.4971 116.875C58.7971 117.125 59.1887 117.35 59.6721 117.55C60.1721 117.733 60.7137 117.925 61.2971 118.125C61.8971 118.325 62.4887 118.558 63.0721 118.825C63.6554 119.092 64.1887 119.433 64.6721 119.85C65.1721 120.267 65.5721 120.792 65.8721 121.425C66.1721 122.058 66.3221 122.825 66.3221 123.725C66.3221 125.492 65.6971 126.858 64.4471 127.825C63.2137 128.792 61.4804 129.275 59.2471 129.275Z" fill="#9028FF"/>
</svg>
